<svg viewBox="-100 -950 1035 1900" xmlns='http://www.w3.org/2000/svg'>
<line x1="-100" y1="0" x2="1035" y2="0" stroke="#263238" stroke-width="3" stroke-dasharray="8,10" />
<line x1="0" y1="-950" x2="0" y2="1900" stroke="#263238" stroke-width="3" stroke-dasharray="8,10" />
<polygon points="850,-0 50,-0 50,-450" stroke-width="1" stroke-dasharray="3,2"  stroke="black " fill="#00C853 " fill-opacity="0.8" />

<polygon points="50,-450 50.7893,-475.116 53.1541,-500.133" stroke-width="1" stroke-dasharray="3,2"  stroke="black " fill="#009624 " fill-opacity="0.8" />

<polygon points="53.1541,-500.133 57.0851,-524.953 62.5667,-549.476" stroke-width="1" stroke-dasharray="3,2"  stroke="black " fill="#5EFC82 " fill-opacity="0.8" />

<polygon points="62.5667,-549.476 69.5774,-573.607 78.0894,-597.25" stroke-width="1" stroke-dasharray="3,2"  stroke="black " fill="#00C853 " fill-opacity="0.8" />

<polygon points="78.0894,-597.25 88.0692,-620.312 99.4773,-642.701" stroke-width="1" stroke-dasharray="3,2"  stroke="black " fill="#009624 " fill-opacity="0.8" />

<polygon points="99.4773,-642.701 112.269,-664.331 126.393,-685.114" stroke-width="1" stroke-dasharray="3,2"  stroke="black " fill="#5EFC82 " fill-opacity="0.8" />

<polygon points="126.393,-685.114 141.795,-704.97 158.413,-723.819" stroke-width="1" stroke-dasharray="3,2"  stroke="black " fill="#00C853 " fill-opacity="0.8" />

<polygon points="158.413,-723.819 176.181,-741.587 195.03,-758.205" stroke-width="1" stroke-dasharray="3,2"  stroke="black " fill="#009624 " fill-opacity="0.8" />

<polygon points="195.03,-758.205 214.886,-773.607 235.669,-787.731" stroke-width="1" stroke-dasharray="3,2"  stroke="black " fill="#5EFC82 " fill-opacity="0.8" />

<polygon points="235.669,-787.731 257.299,-800.523 279.688,-811.931" stroke-width="1" stroke-dasharray="3,2"  stroke="black " fill="#00C853 " fill-opacity="0.8" />

<polygon points="279.688,-811.931 302.75,-821.911 326.393,-830.423" stroke-width="1" stroke-dasharray="3,2"  stroke="black " fill="#009624 " fill-opacity="0.8" />

<polygon points="326.393,-830.423 350.524,-837.433 375.047,-842.915" stroke-width="1" stroke-dasharray="3,2"  stroke="black " fill="#5EFC82 " fill-opacity="0.8" />

<polygon points="375.047,-842.915 399.867,-846.846 424.884,-849.211" stroke-width="1" stroke-dasharray="3,2"  stroke="black " fill="#00C853 " fill-opacity="0.8" />

<polygon points="424.884,-849.211 450,-850 475.116,-849.211" stroke-width="1" stroke-dasharray="3,2"  stroke="black " fill="#009624 " fill-opacity="0.8" />

<polygon points="475.116,-849.211 500.133,-846.846 524.953,-842.915" stroke-width="1" stroke-dasharray="3,2"  stroke="black " fill="#5EFC82 " fill-opacity="0.8" />

<polygon points="524.953,-842.915 549.476,-837.433 573.607,-830.423" stroke-width="1" stroke-dasharray="3,2"  stroke="black " fill="#00C853 " fill-opacity="0.8" />

<polygon points="573.607,-830.423 597.25,-821.911 620.312,-811.931" stroke-width="1" stroke-dasharray="3,2"  stroke="black " fill="#009624 " fill-opacity="0.8" />

<polygon points="620.312,-811.931 642.701,-800.523 664.331,-787.731" stroke-width="1" stroke-dasharray="3,2"  stroke="black " fill="#5EFC82 " fill-opacity="0.8" />

<polygon points="664.331,-787.731 685.114,-773.607 704.97,-758.205" stroke-width="1" stroke-dasharray="3,2"  stroke="black " fill="#00C853 " fill-opacity="0.8" />

<polygon points="704.97,-758.205 723.819,-741.587 741.587,-723.819" stroke-width="1" stroke-dasharray="3,2"  stroke="black " fill="#009624 " fill-opacity="0.8" />

<polygon points="741.587,-723.819 758.205,-704.97 773.607,-685.114" stroke-width="1" stroke-dasharray="3,2"  stroke="black " fill="#5EFC82 " fill-opacity="0.8" />

<polygon points="773.607,-685.114 787.731,-664.331 800.523,-642.701" stroke-width="1" stroke-dasharray="3,2"  stroke="black " fill="#00C853 " fill-opacity="0.8" />

<polygon points="800.523,-642.701 811.931,-620.312 821.911,-597.25" stroke-width="1" stroke-dasharray="3,2"  stroke="black " fill="#009624 " fill-opacity="0.8" />

<polygon points="821.911,-597.25 830.423,-573.607 837.433,-549.476" stroke-width="1" stroke-dasharray="3,2"  stroke="black " fill="#5EFC82 " fill-opacity="0.8" />

<polygon points="837.433,-549.476 842.915,-524.953 846.846,-500.133" stroke-width="1" stroke-dasharray="3,2"  stroke="black " fill="#00C853 " fill-opacity="0.8" />

<polygon points="846.846,-500.133 849.211,-475.116 850,-450" stroke-width="1" stroke-dasharray="3,2"  stroke="black " fill="#009624 " fill-opacity="0.8" />

<polygon points="850,-450 850,-0 50,-450" stroke-width="1" stroke-dasharray="3,2"  stroke="black " fill="#5EFC82 " fill-opacity="0.8" />

<polygon points="850,-450 50,-450 53.1541,-500.133" stroke-width="1" stroke-dasharray="3,2"  stroke="black " fill="#00C853 " fill-opacity="0.8" />

<polygon points="53.1541,-500.133 62.5667,-549.476 78.0894,-597.25" stroke-width="1" stroke-dasharray="3,2"  stroke="black " fill="#009624 " fill-opacity="0.8" />

<polygon points="78.0894,-597.25 99.4773,-642.701 126.393,-685.114" stroke-width="1" stroke-dasharray="3,2"  stroke="black " fill="#5EFC82 " fill-opacity="0.8" />

<polygon points="126.393,-685.114 158.413,-723.819 195.03,-758.205" stroke-width="1" stroke-dasharray="3,2"  stroke="black " fill="#00C853 " fill-opacity="0.8" />

<polygon points="195.03,-758.205 235.669,-787.731 279.688,-811.931" stroke-width="1" stroke-dasharray="3,2"  stroke="black " fill="#009624 " fill-opacity="0.8" />

<polygon points="279.688,-811.931 326.393,-830.423 375.047,-842.915" stroke-width="1" stroke-dasharray="3,2"  stroke="black " fill="#5EFC82 " fill-opacity="0.8" />

<polygon points="375.047,-842.915 424.884,-849.211 475.116,-849.211" stroke-width="1" stroke-dasharray="3,2"  stroke="black " fill="#00C853 " fill-opacity="0.8" />

<polygon points="475.116,-849.211 524.953,-842.915 573.607,-830.423" stroke-width="1" stroke-dasharray="3,2"  stroke="black " fill="#009624 " fill-opacity="0.8" />

<polygon points="573.607,-830.423 620.312,-811.931 664.331,-787.731" stroke-width="1" stroke-dasharray="3,2"  stroke="black " fill="#5EFC82 " fill-opacity="0.8" />

<polygon points="664.331,-787.731 704.97,-758.205 741.587,-723.819" stroke-width="1" stroke-dasharray="3,2"  stroke="black " fill="#00C853 " fill-opacity="0.8" />

<polygon points="741.587,-723.819 773.607,-685.114 800.523,-642.701" stroke-width="1" stroke-dasharray="3,2"  stroke="black " fill="#009624 " fill-opacity="0.8" />

<polygon points="800.523,-642.701 821.911,-597.25 837.433,-549.476" stroke-width="1" stroke-dasharray="3,2"  stroke="black " fill="#5EFC82 " fill-opacity="0.8" />

<polygon points="837.433,-549.476 846.846,-500.133 850,-450" stroke-width="1" stroke-dasharray="3,2"  stroke="black " fill="#00C853 " fill-opacity="0.8" />

<polygon points="850,-450 53.1541,-500.133 78.0894,-597.25" stroke-width="1" stroke-dasharray="3,2"  stroke="black " fill="#009624 " fill-opacity="0.8" />

<polygon points="78.0894,-597.25 126.393,-685.114 195.03,-758.205" stroke-width="1" stroke-dasharray="3,2"  stroke="black " fill="#5EFC82 " fill-opacity="0.8" />

<polygon points="195.03,-758.205 279.688,-811.931 375.047,-842.915" stroke-width="1" stroke-dasharray="3,2"  stroke="black " fill="#00C853 " fill-opacity="0.8" />

<polygon points="375.047,-842.915 475.116,-849.211 573.607,-830.423" stroke-width="1" stroke-dasharray="3,2"  stroke="black " fill="#009624 " fill-opacity="0.8" />

<polygon points="573.607,-830.423 664.331,-787.731 741.587,-723.819" stroke-width="1" stroke-dasharray="3,2"  stroke="black " fill="#5EFC82 " fill-opacity="0.8" />

<polygon points="741.587,-723.819 800.523,-642.701 837.433,-549.476" stroke-width="1" stroke-dasharray="3,2"  stroke="black " fill="#00C853 " fill-opacity="0.8" />

<polygon points="837.433,-549.476 850,-450 78.0894,-597.25" stroke-width="1" stroke-dasharray="3,2"  stroke="black " fill="#009624 " fill-opacity="0.8" />

<polygon points="837.433,-549.476 78.0894,-597.25 195.03,-758.205" stroke-width="1" stroke-dasharray="3,2"  stroke="black " fill="#5EFC82 " fill-opacity="0.8" />

<polygon points="195.03,-758.205 375.047,-842.915 573.607,-830.423" stroke-width="1" stroke-dasharray="3,2"  stroke="black " fill="#00C853 " fill-opacity="0.8" />

<polygon points="573.607,-830.423 741.587,-723.819 837.433,-549.476" stroke-width="1" stroke-dasharray="3,2"  stroke="black " fill="#009624 " fill-opacity="0.8" />

<polygon points="837.433,-549.476 195.03,-758.205 573.607,-830.423" stroke-width="1" stroke-dasharray="3,2"  stroke="black " fill="#5EFC82 " fill-opacity="0.8" />

<polygon points="50.000000,-0.000000 50.000000,-450.000000 50.789309,-424.883792 53.154119,-399.866707 57.085100,-375.047474 62.566736,-350.524045 69.577393,-326.393202 78.089406,-302.750179 88.069179,-279.688283 99.477328,-257.298530 112.268830,-235.669282 126.393202,-214.885899 141.794703,-195.030404 158.412549,-176.181158 176.181158,-158.412549 195.030404,-141.794703 214.885899,-126.393202 235.669282,-112.268830 257.298530,-99.477328 279.688283,-88.069179 302.750179,-78.089406 326.393202,-69.577393 350.524045,-62.566736 375.047474,-57.085100 399.866707,-53.154119 424.883792,-50.789309 450.000000,-50.000000 475.116208,-50.789309 500.133293,-53.154119 524.952526,-57.085100 549.475955,-62.566736 573.606798,-69.577393 597.249821,-78.089406 620.311717,-88.069179 642.701470,-99.477328 664.330718,-112.268830 685.114101,-126.393202 704.969596,-141.794703 723.818842,-158.412549 741.587451,-176.181158 758.205297,-195.030404 773.606798,-214.885899 787.731170,-235.669282 800.522672,-257.298530 811.930821,-279.688283 821.910594,-302.750179 830.422607,-326.393202 837.433264,-350.524045 842.914900,-375.047474 846.845881,-399.866707 849.210691,-424.883792 850.000000,-450.000000 850.000000,-0.000000 " stroke="CFD8DC" stroke-width="1" fill= " white "  fill-opacity="1" />
<line x1="-100" y1="0" x2="1035" y2="0" stroke="#263238" stroke-width="3" stroke-dasharray="8,10" />
<line x1="0" y1="-950" x2="0" y2="1900" stroke="#263238" stroke-width="3" stroke-dasharray="8,10" />
<polygon points="50,-0 50,-450 50.7893,-424.884" stroke-width="1" stroke-dasharray="3,2"  stroke="#D50000 " fill="#CFD8DC " fill-opacity="0.8" />

<polygon points="849.211,-424.884 850,-450 850,-0" stroke-width="1" stroke-dasharray="3,2"  stroke="#D50000 " fill="#CFD8DC " fill-opacity="0.8" />

<polygon points="50,-0 50.7893,-424.884 53.1541,-399.867" stroke-width="1" stroke-dasharray="3,2"  stroke="#D50000 " fill="#CFD8DC " fill-opacity="0.8" />

<polygon points="846.846,-399.867 849.211,-424.884 850,-0" stroke-width="1" stroke-dasharray="3,2"  stroke="#D50000 " fill="#CFD8DC " fill-opacity="0.8" />

<polygon points="50,-0 53.1541,-399.867 57.0851,-375.047" stroke-width="1" stroke-dasharray="3,2"  stroke="#D50000 " fill="#CFD8DC " fill-opacity="0.8" />

<polygon points="842.915,-375.047 846.846,-399.867 850,-0" stroke-width="1" stroke-dasharray="3,2"  stroke="#D50000 " fill="#CFD8DC " fill-opacity="0.8" />

<polygon points="50,-0 57.0851,-375.047 62.5667,-350.524" stroke-width="1" stroke-dasharray="3,2"  stroke="#D50000 " fill="#CFD8DC " fill-opacity="0.8" />

<polygon points="837.433,-350.524 842.915,-375.047 850,-0" stroke-width="1" stroke-dasharray="3,2"  stroke="#D50000 " fill="#CFD8DC " fill-opacity="0.8" />

<polygon points="50,-0 62.5667,-350.524 69.5774,-326.393" stroke-width="1" stroke-dasharray="3,2"  stroke="#D50000 " fill="#CFD8DC " fill-opacity="0.8" />

<polygon points="830.423,-326.393 837.433,-350.524 850,-0" stroke-width="1" stroke-dasharray="3,2"  stroke="#D50000 " fill="#CFD8DC " fill-opacity="0.8" />

<polygon points="50,-0 69.5774,-326.393 78.0894,-302.75" stroke-width="1" stroke-dasharray="3,2"  stroke="#D50000 " fill="#CFD8DC " fill-opacity="0.8" />

<polygon points="821.911,-302.75 830.423,-326.393 850,-0" stroke-width="1" stroke-dasharray="3,2"  stroke="#D50000 " fill="#CFD8DC " fill-opacity="0.8" />

<polygon points="50,-0 78.0894,-302.75 88.0692,-279.688" stroke-width="1" stroke-dasharray="3,2"  stroke="#D50000 " fill="#CFD8DC " fill-opacity="0.8" />

<polygon points="811.931,-279.688 821.911,-302.75 850,-0" stroke-width="1" stroke-dasharray="3,2"  stroke="#D50000 " fill="#CFD8DC " fill-opacity="0.8" />

<polygon points="50,-0 88.0692,-279.688 99.4773,-257.299" stroke-width="1" stroke-dasharray="3,2"  stroke="#D50000 " fill="#CFD8DC " fill-opacity="0.8" />

<polygon points="800.523,-257.299 811.931,-279.688 850,-0" stroke-width="1" stroke-dasharray="3,2"  stroke="#D50000 " fill="#CFD8DC " fill-opacity="0.8" />

<polygon points="50,-0 99.4773,-257.299 112.269,-235.669" stroke-width="1" stroke-dasharray="3,2"  stroke="#D50000 " fill="#CFD8DC " fill-opacity="0.8" />

<polygon points="787.731,-235.669 800.523,-257.299 850,-0" stroke-width="1" stroke-dasharray="3,2"  stroke="#D50000 " fill="#CFD8DC " fill-opacity="0.8" />

<polygon points="50,-0 112.269,-235.669 126.393,-214.886" stroke-width="1" stroke-dasharray="3,2"  stroke="#D50000 " fill="#CFD8DC " fill-opacity="0.8" />

<polygon points="773.607,-214.886 787.731,-235.669 850,-0" stroke-width="1" stroke-dasharray="3,2"  stroke="#D50000 " fill="#CFD8DC " fill-opacity="0.8" />

<polygon points="50,-0 126.393,-214.886 141.795,-195.03" stroke-width="1" stroke-dasharray="3,2"  stroke="#D50000 " fill="#CFD8DC " fill-opacity="0.8" />

<polygon points="758.205,-195.03 773.607,-214.886 850,-0" stroke-width="1" stroke-dasharray="3,2"  stroke="#D50000 " fill="#CFD8DC " fill-opacity="0.8" />

<polygon points="50,-0 141.795,-195.03 158.413,-176.181" stroke-width="1" stroke-dasharray="3,2"  stroke="#D50000 " fill="#CFD8DC " fill-opacity="0.8" />

<polygon points="741.587,-176.181 758.205,-195.03 850,-0" stroke-width="1" stroke-dasharray="3,2"  stroke="#D50000 " fill="#CFD8DC " fill-opacity="0.8" />

<polygon points="50,-0 158.413,-176.181 176.181,-158.413" stroke-width="1" stroke-dasharray="3,2"  stroke="#D50000 " fill="#CFD8DC " fill-opacity="0.8" />

<polygon points="723.819,-158.413 741.587,-176.181 850,-0" stroke-width="1" stroke-dasharray="3,2"  stroke="#D50000 " fill="#CFD8DC " fill-opacity="0.8" />

<polygon points="50,-0 176.181,-158.413 195.03,-141.795" stroke-width="1" stroke-dasharray="3,2"  stroke="#D50000 " fill="#CFD8DC " fill-opacity="0.8" />

<polygon points="704.97,-141.795 723.819,-158.413 850,-0" stroke-width="1" stroke-dasharray="3,2"  stroke="#D50000 " fill="#CFD8DC " fill-opacity="0.8" />

<polygon points="50,-0 195.03,-141.795 214.886,-126.393" stroke-width="1" stroke-dasharray="3,2"  stroke="#D50000 " fill="#CFD8DC " fill-opacity="0.8" />

<polygon points="685.114,-126.393 704.97,-141.795 850,-0" stroke-width="1" stroke-dasharray="3,2"  stroke="#D50000 " fill="#CFD8DC " fill-opacity="0.8" />

<polygon points="50,-0 214.886,-126.393 235.669,-112.269" stroke-width="1" stroke-dasharray="3,2"  stroke="#D50000 " fill="#CFD8DC " fill-opacity="0.8" />

<polygon points="664.331,-112.269 685.114,-126.393 850,-0" stroke-width="1" stroke-dasharray="3,2"  stroke="#D50000 " fill="#CFD8DC " fill-opacity="0.8" />

<polygon points="50,-0 235.669,-112.269 257.299,-99.4773" stroke-width="1" stroke-dasharray="3,2"  stroke="#D50000 " fill="#CFD8DC " fill-opacity="0.8" />

<polygon points="642.701,-99.4773 664.331,-112.269 850,-0" stroke-width="1" stroke-dasharray="3,2"  stroke="#D50000 " fill="#CFD8DC " fill-opacity="0.8" />

<polygon points="50,-0 257.299,-99.4773 279.688,-88.0692" stroke-width="1" stroke-dasharray="3,2"  stroke="#D50000 " fill="#CFD8DC " fill-opacity="0.8" />

<polygon points="620.312,-88.0692 642.701,-99.4773 850,-0" stroke-width="1" stroke-dasharray="3,2"  stroke="#D50000 " fill="#CFD8DC " fill-opacity="0.8" />

<polygon points="50,-0 279.688,-88.0692 302.75,-78.0894" stroke-width="1" stroke-dasharray="3,2"  stroke="#D50000 " fill="#CFD8DC " fill-opacity="0.8" />

<polygon points="597.25,-78.0894 620.312,-88.0692 850,-0" stroke-width="1" stroke-dasharray="3,2"  stroke="#D50000 " fill="#CFD8DC " fill-opacity="0.8" />

<polygon points="50,-0 302.75,-78.0894 326.393,-69.5774" stroke-width="1" stroke-dasharray="3,2"  stroke="#D50000 " fill="#CFD8DC " fill-opacity="0.8" />

<polygon points="573.607,-69.5774 597.25,-78.0894 850,-0" stroke-width="1" stroke-dasharray="3,2"  stroke="#D50000 " fill="#CFD8DC " fill-opacity="0.8" />

<polygon points="50,-0 326.393,-69.5774 350.524,-62.5667" stroke-width="1" stroke-dasharray="3,2"  stroke="#D50000 " fill="#CFD8DC " fill-opacity="0.8" />

<polygon points="549.476,-62.5667 573.607,-69.5774 850,-0" stroke-width="1" stroke-dasharray="3,2"  stroke="#D50000 " fill="#CFD8DC " fill-opacity="0.8" />

<polygon points="50,-0 350.524,-62.5667 375.047,-57.0851" stroke-width="1" stroke-dasharray="3,2"  stroke="#D50000 " fill="#CFD8DC " fill-opacity="0.8" />

<polygon points="524.953,-57.0851 549.476,-62.5667 850,-0" stroke-width="1" stroke-dasharray="3,2"  stroke="#D50000 " fill="#CFD8DC " fill-opacity="0.8" />

<polygon points="50,-0 375.047,-57.0851 399.867,-53.1541" stroke-width="1" stroke-dasharray="3,2"  stroke="#D50000 " fill="#CFD8DC " fill-opacity="0.8" />

<polygon points="500.133,-53.1541 524.953,-57.0851 850,-0" stroke-width="1" stroke-dasharray="3,2"  stroke="#D50000 " fill="#CFD8DC " fill-opacity="0.8" />

<polygon points="850,-0 50,-0 399.867,-53.1541" stroke-width="1" stroke-dasharray="3,2"  stroke="#D50000 " fill="#CFD8DC " fill-opacity="0.8" />

<polygon points="475.116,-50.7893 500.133,-53.1541 850,-0" stroke-width="1" stroke-dasharray="3,2"  stroke="#D50000 " fill="#CFD8DC " fill-opacity="0.8" />

<polygon points="850,-0 399.867,-53.1541 424.884,-50.7893" stroke-width="1" stroke-dasharray="3,2"  stroke="#D50000 " fill="#CFD8DC " fill-opacity="0.8" />

<polygon points="450,-50 475.116,-50.7893 850,-0" stroke-width="1" stroke-dasharray="3,2"  stroke="#D50000 " fill="#CFD8DC " fill-opacity="0.8" />

<polygon points="850,-0 424.884,-50.7893 450,-50" stroke-width="1" stroke-dasharray="3,2"  stroke="#D50000 " fill="#CFD8DC " fill-opacity="0.8" />

<line x1="50" y1="-0" x2="50" y2="-450" stroke="blue" stroke-width="2" />
<line x1="50" y1="-450" x2="50.7893" y2="-475.116" stroke="blue" stroke-width="2" />
<line x1="50.7893" y1="-475.116" x2="53.1541" y2="-500.133" stroke="blue" stroke-width="2" />
<line x1="53.1541" y1="-500.133" x2="57.0851" y2="-524.953" stroke="blue" stroke-width="2" />
<line x1="57.0851" y1="-524.953" x2="62.5667" y2="-549.476" stroke="blue" stroke-width="2" />
<line x1="62.5667" y1="-549.476" x2="69.5774" y2="-573.607" stroke="blue" stroke-width="2" />
<line x1="69.5774" y1="-573.607" x2="78.0894" y2="-597.25" stroke="blue" stroke-width="2" />
<line x1="78.0894" y1="-597.25" x2="88.0692" y2="-620.312" stroke="blue" stroke-width="2" />
<line x1="88.0692" y1="-620.312" x2="99.4773" y2="-642.701" stroke="blue" stroke-width="2" />
<line x1="99.4773" y1="-642.701" x2="112.269" y2="-664.331" stroke="blue" stroke-width="2" />
<line x1="112.269" y1="-664.331" x2="126.393" y2="-685.114" stroke="blue" stroke-width="2" />
<line x1="126.393" y1="-685.114" x2="141.795" y2="-704.97" stroke="blue" stroke-width="2" />
<line x1="141.795" y1="-704.97" x2="158.413" y2="-723.819" stroke="blue" stroke-width="2" />
<line x1="158.413" y1="-723.819" x2="176.181" y2="-741.587" stroke="blue" stroke-width="2" />
<line x1="176.181" y1="-741.587" x2="195.03" y2="-758.205" stroke="blue" stroke-width="2" />
<line x1="195.03" y1="-758.205" x2="214.886" y2="-773.607" stroke="blue" stroke-width="2" />
<line x1="214.886" y1="-773.607" x2="235.669" y2="-787.731" stroke="blue" stroke-width="2" />
<line x1="235.669" y1="-787.731" x2="257.299" y2="-800.523" stroke="blue" stroke-width="2" />
<line x1="257.299" y1="-800.523" x2="279.688" y2="-811.931" stroke="blue" stroke-width="2" />
<line x1="279.688" y1="-811.931" x2="302.75" y2="-821.911" stroke="blue" stroke-width="2" />
<line x1="302.75" y1="-821.911" x2="326.393" y2="-830.423" stroke="blue" stroke-width="2" />
<line x1="326.393" y1="-830.423" x2="350.524" y2="-837.433" stroke="blue" stroke-width="2" />
<line x1="350.524" y1="-837.433" x2="375.047" y2="-842.915" stroke="blue" stroke-width="2" />
<line x1="375.047" y1="-842.915" x2="399.867" y2="-846.846" stroke="blue" stroke-width="2" />
<line x1="399.867" y1="-846.846" x2="424.884" y2="-849.211" stroke="blue" stroke-width="2" />
<line x1="424.884" y1="-849.211" x2="450" y2="-850" stroke="blue" stroke-width="2" />
<line x1="450" y1="-850" x2="475.116" y2="-849.211" stroke="blue" stroke-width="2" />
<line x1="475.116" y1="-849.211" x2="500.133" y2="-846.846" stroke="blue" stroke-width="2" />
<line x1="500.133" y1="-846.846" x2="524.953" y2="-842.915" stroke="blue" stroke-width="2" />
<line x1="524.953" y1="-842.915" x2="549.476" y2="-837.433" stroke="blue" stroke-width="2" />
<line x1="549.476" y1="-837.433" x2="573.607" y2="-830.423" stroke="blue" stroke-width="2" />
<line x1="573.607" y1="-830.423" x2="597.25" y2="-821.911" stroke="blue" stroke-width="2" />
<line x1="597.25" y1="-821.911" x2="620.312" y2="-811.931" stroke="blue" stroke-width="2" />
<line x1="620.312" y1="-811.931" x2="642.701" y2="-800.523" stroke="blue" stroke-width="2" />
<line x1="642.701" y1="-800.523" x2="664.331" y2="-787.731" stroke="blue" stroke-width="2" />
<line x1="664.331" y1="-787.731" x2="685.114" y2="-773.607" stroke="blue" stroke-width="2" />
<line x1="685.114" y1="-773.607" x2="704.97" y2="-758.205" stroke="blue" stroke-width="2" />
<line x1="704.97" y1="-758.205" x2="723.819" y2="-741.587" stroke="blue" stroke-width="2" />
<line x1="723.819" y1="-741.587" x2="741.587" y2="-723.819" stroke="blue" stroke-width="2" />
<line x1="741.587" y1="-723.819" x2="758.205" y2="-704.97" stroke="blue" stroke-width="2" />
<line x1="758.205" y1="-704.97" x2="773.607" y2="-685.114" stroke="blue" stroke-width="2" />
<line x1="773.607" y1="-685.114" x2="787.731" y2="-664.331" stroke="blue" stroke-width="2" />
<line x1="787.731" y1="-664.331" x2="800.523" y2="-642.701" stroke="blue" stroke-width="2" />
<line x1="800.523" y1="-642.701" x2="811.931" y2="-620.312" stroke="blue" stroke-width="2" />
<line x1="811.931" y1="-620.312" x2="821.911" y2="-597.25" stroke="blue" stroke-width="2" />
<line x1="821.911" y1="-597.25" x2="830.423" y2="-573.607" stroke="blue" stroke-width="2" />
<line x1="830.423" y1="-573.607" x2="837.433" y2="-549.476" stroke="blue" stroke-width="2" />
<line x1="837.433" y1="-549.476" x2="842.915" y2="-524.953" stroke="blue" stroke-width="2" />
<line x1="842.915" y1="-524.953" x2="846.846" y2="-500.133" stroke="blue" stroke-width="2" />
<line x1="846.846" y1="-500.133" x2="849.211" y2="-475.116" stroke="blue" stroke-width="2" />
<line x1="849.211" y1="-475.116" x2="850" y2="-450" stroke="blue" stroke-width="2" />
<line x1="850" y1="-450" x2="850" y2="-0" stroke="blue" stroke-width="2" />
<line x1="50" y1="-0" x2="850" y2="-0" stroke="green" stroke-width="2" />
<circle cx="50" cy="-0" r="10" stroke="Black" stroke-width="2" fill="white" />
<text x="50" y="3" text-anchor="middle" font-size="12" font-weight="bold">A</text>
<circle cx="50" cy="-450" r="10" stroke="#0026CA" stroke-width="2" fill="#84FFFF" />
<text x="50" y="-447" text-anchor="middle" font-size="12" font-weight="bold">49</text>
<circle cx="50.7893" cy="-475.116" r="10" stroke="Black" stroke-width="2" fill="white" />
<text x="50.7893" y="-472.116" text-anchor="middle" font-size="12" font-weight="bold">50</text>
<circle cx="53.1541" cy="-500.133" r="10" stroke="Black" stroke-width="2" fill="white" />
<text x="53.1541" y="-497.133" text-anchor="middle" font-size="12" font-weight="bold">51</text>
<circle cx="57.0851" cy="-524.953" r="10" stroke="Black" stroke-width="2" fill="white" />
<text x="57.0851" y="-521.953" text-anchor="middle" font-size="12" font-weight="bold">52</text>
<circle cx="62.5667" cy="-549.476" r="10" stroke="Black" stroke-width="2" fill="white" />
<text x="62.5667" y="-546.476" text-anchor="middle" font-size="12" font-weight="bold">53</text>
<circle cx="69.5774" cy="-573.607" r="10" stroke="Black" stroke-width="2" fill="white" />
<text x="69.5774" y="-570.607" text-anchor="middle" font-size="12" font-weight="bold">54</text>
<circle cx="78.0894" cy="-597.25" r="10" stroke="Black" stroke-width="2" fill="white" />
<text x="78.0894" y="-594.25" text-anchor="middle" font-size="12" font-weight="bold">55</text>
<circle cx="88.0692" cy="-620.312" r="10" stroke="Black" stroke-width="2" fill="white" />
<text x="88.0692" y="-617.312" text-anchor="middle" font-size="12" font-weight="bold">56</text>
<circle cx="99.4773" cy="-642.701" r="10" stroke="Black" stroke-width="2" fill="white" />
<text x="99.4773" y="-639.701" text-anchor="middle" font-size="12" font-weight="bold">57</text>
<circle cx="112.269" cy="-664.331" r="10" stroke="Black" stroke-width="2" fill="white" />
<text x="112.269" y="-661.331" text-anchor="middle" font-size="12" font-weight="bold">58</text>
<circle cx="126.393" cy="-685.114" r="10" stroke="Black" stroke-width="2" fill="white" />
<text x="126.393" y="-682.114" text-anchor="middle" font-size="12" font-weight="bold">59</text>
<circle cx="141.795" cy="-704.97" r="10" stroke="Black" stroke-width="2" fill="white" />
<text x="141.795" y="-701.97" text-anchor="middle" font-size="12" font-weight="bold">60</text>
<circle cx="158.413" cy="-723.819" r="10" stroke="Black" stroke-width="2" fill="white" />
<text x="158.413" y="-720.819" text-anchor="middle" font-size="12" font-weight="bold">61</text>
<circle cx="176.181" cy="-741.587" r="10" stroke="Black" stroke-width="2" fill="white" />
<text x="176.181" y="-738.587" text-anchor="middle" font-size="12" font-weight="bold">62</text>
<circle cx="195.03" cy="-758.205" r="10" stroke="Black" stroke-width="2" fill="white" />
<text x="195.03" y="-755.205" text-anchor="middle" font-size="12" font-weight="bold">63</text>
<circle cx="214.886" cy="-773.607" r="10" stroke="Black" stroke-width="2" fill="white" />
<text x="214.886" y="-770.607" text-anchor="middle" font-size="12" font-weight="bold">64</text>
<circle cx="235.669" cy="-787.731" r="10" stroke="Black" stroke-width="2" fill="white" />
<text x="235.669" y="-784.731" text-anchor="middle" font-size="12" font-weight="bold">65</text>
<circle cx="257.299" cy="-800.523" r="10" stroke="Black" stroke-width="2" fill="white" />
<text x="257.299" y="-797.523" text-anchor="middle" font-size="12" font-weight="bold">66</text>
<circle cx="279.688" cy="-811.931" r="10" stroke="Black" stroke-width="2" fill="white" />
<text x="279.688" y="-808.931" text-anchor="middle" font-size="12" font-weight="bold">67</text>
<circle cx="302.75" cy="-821.911" r="10" stroke="Black" stroke-width="2" fill="white" />
<text x="302.75" y="-818.911" text-anchor="middle" font-size="12" font-weight="bold">68</text>
<circle cx="326.393" cy="-830.423" r="10" stroke="Black" stroke-width="2" fill="white" />
<text x="326.393" y="-827.423" text-anchor="middle" font-size="12" font-weight="bold">69</text>
<circle cx="350.524" cy="-837.433" r="10" stroke="Black" stroke-width="2" fill="white" />
<text x="350.524" y="-834.433" text-anchor="middle" font-size="12" font-weight="bold">70</text>
<circle cx="375.047" cy="-842.915" r="10" stroke="Black" stroke-width="2" fill="white" />
<text x="375.047" y="-839.915" text-anchor="middle" font-size="12" font-weight="bold">71</text>
<circle cx="399.867" cy="-846.846" r="10" stroke="Black" stroke-width="2" fill="white" />
<text x="399.867" y="-843.846" text-anchor="middle" font-size="12" font-weight="bold">72</text>
<circle cx="424.884" cy="-849.211" r="10" stroke="Black" stroke-width="2" fill="white" />
<text x="424.884" y="-846.211" text-anchor="middle" font-size="12" font-weight="bold">73</text>
<circle cx="450" cy="-850" r="10" stroke="Black" stroke-width="2" fill="white" />
<text x="450" y="-847" text-anchor="middle" font-size="12" font-weight="bold">74</text>
<circle cx="475.116" cy="-849.211" r="10" stroke="Black" stroke-width="2" fill="white" />
<text x="475.116" y="-846.211" text-anchor="middle" font-size="12" font-weight="bold">75</text>
<circle cx="500.133" cy="-846.846" r="10" stroke="Black" stroke-width="2" fill="white" />
<text x="500.133" y="-843.846" text-anchor="middle" font-size="12" font-weight="bold">76</text>
<circle cx="524.953" cy="-842.915" r="10" stroke="Black" stroke-width="2" fill="white" />
<text x="524.953" y="-839.915" text-anchor="middle" font-size="12" font-weight="bold">77</text>
<circle cx="549.476" cy="-837.433" r="10" stroke="Black" stroke-width="2" fill="white" />
<text x="549.476" y="-834.433" text-anchor="middle" font-size="12" font-weight="bold">78</text>
<circle cx="573.607" cy="-830.423" r="10" stroke="Black" stroke-width="2" fill="white" />
<text x="573.607" y="-827.423" text-anchor="middle" font-size="12" font-weight="bold">79</text>
<circle cx="597.25" cy="-821.911" r="10" stroke="Black" stroke-width="2" fill="white" />
<text x="597.25" y="-818.911" text-anchor="middle" font-size="12" font-weight="bold">80</text>
<circle cx="620.312" cy="-811.931" r="10" stroke="Black" stroke-width="2" fill="white" />
<text x="620.312" y="-808.931" text-anchor="middle" font-size="12" font-weight="bold">81</text>
<circle cx="642.701" cy="-800.523" r="10" stroke="Black" stroke-width="2" fill="white" />
<text x="642.701" y="-797.523" text-anchor="middle" font-size="12" font-weight="bold">82</text>
<circle cx="664.331" cy="-787.731" r="10" stroke="Black" stroke-width="2" fill="white" />
<text x="664.331" y="-784.731" text-anchor="middle" font-size="12" font-weight="bold">83</text>
<circle cx="685.114" cy="-773.607" r="10" stroke="Black" stroke-width="2" fill="white" />
<text x="685.114" y="-770.607" text-anchor="middle" font-size="12" font-weight="bold">84</text>
<circle cx="704.97" cy="-758.205" r="10" stroke="Black" stroke-width="2" fill="white" />
<text x="704.97" y="-755.205" text-anchor="middle" font-size="12" font-weight="bold">85</text>
<circle cx="723.819" cy="-741.587" r="10" stroke="Black" stroke-width="2" fill="white" />
<text x="723.819" y="-738.587" text-anchor="middle" font-size="12" font-weight="bold">86</text>
<circle cx="741.587" cy="-723.819" r="10" stroke="Black" stroke-width="2" fill="white" />
<text x="741.587" y="-720.819" text-anchor="middle" font-size="12" font-weight="bold">87</text>
<circle cx="758.205" cy="-704.97" r="10" stroke="Black" stroke-width="2" fill="white" />
<text x="758.205" y="-701.97" text-anchor="middle" font-size="12" font-weight="bold">88</text>
<circle cx="773.607" cy="-685.114" r="10" stroke="Black" stroke-width="2" fill="white" />
<text x="773.607" y="-682.114" text-anchor="middle" font-size="12" font-weight="bold">89</text>
<circle cx="787.731" cy="-664.331" r="10" stroke="Black" stroke-width="2" fill="white" />
<text x="787.731" y="-661.331" text-anchor="middle" font-size="12" font-weight="bold">90</text>
<circle cx="800.523" cy="-642.701" r="10" stroke="Black" stroke-width="2" fill="white" />
<text x="800.523" y="-639.701" text-anchor="middle" font-size="12" font-weight="bold">91</text>
<circle cx="811.931" cy="-620.312" r="10" stroke="Black" stroke-width="2" fill="white" />
<text x="811.931" y="-617.312" text-anchor="middle" font-size="12" font-weight="bold">92</text>
<circle cx="821.911" cy="-597.25" r="10" stroke="Black" stroke-width="2" fill="white" />
<text x="821.911" y="-594.25" text-anchor="middle" font-size="12" font-weight="bold">93</text>
<circle cx="830.423" cy="-573.607" r="10" stroke="Black" stroke-width="2" fill="white" />
<text x="830.423" y="-570.607" text-anchor="middle" font-size="12" font-weight="bold">94</text>
<circle cx="837.433" cy="-549.476" r="10" stroke="Black" stroke-width="2" fill="white" />
<text x="837.433" y="-546.476" text-anchor="middle" font-size="12" font-weight="bold">95</text>
<circle cx="842.915" cy="-524.953" r="10" stroke="Black" stroke-width="2" fill="white" />
<text x="842.915" y="-521.953" text-anchor="middle" font-size="12" font-weight="bold">96</text>
<circle cx="846.846" cy="-500.133" r="10" stroke="Black" stroke-width="2" fill="white" />
<text x="846.846" y="-497.133" text-anchor="middle" font-size="12" font-weight="bold">97</text>
<circle cx="849.211" cy="-475.116" r="10" stroke="Black" stroke-width="2" fill="white" />
<text x="849.211" y="-472.116" text-anchor="middle" font-size="12" font-weight="bold">98</text>
<circle cx="850" cy="-450" r="10" stroke="#0026CA" stroke-width="2" fill="#84FFFF" />
<text x="850" y="-447" text-anchor="middle" font-size="12" font-weight="bold">99</text>
<circle cx="850" cy="-0" r="10" stroke="Black" stroke-width="2" fill="white" />
<text x="850" y="3" text-anchor="middle" font-size="12" font-weight="bold">B</text>
<line x1="50" y1="-0" x2="50" y2="-450" stroke="red" stroke-width="2" />
<line x1="50" y1="-450" x2="50.7893" y2="-424.884" stroke="red" stroke-width="2" />
<line x1="50.7893" y1="-424.884" x2="53.1541" y2="-399.867" stroke="red" stroke-width="2" />
<line x1="53.1541" y1="-399.867" x2="57.0851" y2="-375.047" stroke="red" stroke-width="2" />
<line x1="57.0851" y1="-375.047" x2="62.5667" y2="-350.524" stroke="red" stroke-width="2" />
<line x1="62.5667" y1="-350.524" x2="69.5774" y2="-326.393" stroke="red" stroke-width="2" />
<line x1="69.5774" y1="-326.393" x2="78.0894" y2="-302.75" stroke="red" stroke-width="2" />
<line x1="78.0894" y1="-302.75" x2="88.0692" y2="-279.688" stroke="red" stroke-width="2" />
<line x1="88.0692" y1="-279.688" x2="99.4773" y2="-257.299" stroke="red" stroke-width="2" />
<line x1="99.4773" y1="-257.299" x2="112.269" y2="-235.669" stroke="red" stroke-width="2" />
<line x1="112.269" y1="-235.669" x2="126.393" y2="-214.886" stroke="red" stroke-width="2" />
<line x1="126.393" y1="-214.886" x2="141.795" y2="-195.03" stroke="red" stroke-width="2" />
<line x1="141.795" y1="-195.03" x2="158.413" y2="-176.181" stroke="red" stroke-width="2" />
<line x1="158.413" y1="-176.181" x2="176.181" y2="-158.413" stroke="red" stroke-width="2" />
<line x1="176.181" y1="-158.413" x2="195.03" y2="-141.795" stroke="red" stroke-width="2" />
<line x1="195.03" y1="-141.795" x2="214.886" y2="-126.393" stroke="red" stroke-width="2" />
<line x1="214.886" y1="-126.393" x2="235.669" y2="-112.269" stroke="red" stroke-width="2" />
<line x1="235.669" y1="-112.269" x2="257.299" y2="-99.4773" stroke="red" stroke-width="2" />
<line x1="257.299" y1="-99.4773" x2="279.688" y2="-88.0692" stroke="red" stroke-width="2" />
<line x1="279.688" y1="-88.0692" x2="302.75" y2="-78.0894" stroke="red" stroke-width="2" />
<line x1="302.75" y1="-78.0894" x2="326.393" y2="-69.5774" stroke="red" stroke-width="2" />
<line x1="326.393" y1="-69.5774" x2="350.524" y2="-62.5667" stroke="red" stroke-width="2" />
<line x1="350.524" y1="-62.5667" x2="375.047" y2="-57.0851" stroke="red" stroke-width="2" />
<line x1="375.047" y1="-57.0851" x2="399.867" y2="-53.1541" stroke="red" stroke-width="2" />
<line x1="399.867" y1="-53.1541" x2="424.884" y2="-50.7893" stroke="red" stroke-width="2" />
<line x1="424.884" y1="-50.7893" x2="450" y2="-50" stroke="red" stroke-width="2" />
<line x1="450" y1="-50" x2="475.116" y2="-50.7893" stroke="red" stroke-width="2" />
<line x1="475.116" y1="-50.7893" x2="500.133" y2="-53.1541" stroke="red" stroke-width="2" />
<line x1="500.133" y1="-53.1541" x2="524.953" y2="-57.0851" stroke="red" stroke-width="2" />
<line x1="524.953" y1="-57.0851" x2="549.476" y2="-62.5667" stroke="red" stroke-width="2" />
<line x1="549.476" y1="-62.5667" x2="573.607" y2="-69.5774" stroke="red" stroke-width="2" />
<line x1="573.607" y1="-69.5774" x2="597.25" y2="-78.0894" stroke="red" stroke-width="2" />
<line x1="597.25" y1="-78.0894" x2="620.312" y2="-88.0692" stroke="red" stroke-width="2" />
<line x1="620.312" y1="-88.0692" x2="642.701" y2="-99.4773" stroke="red" stroke-width="2" />
<line x1="642.701" y1="-99.4773" x2="664.331" y2="-112.269" stroke="red" stroke-width="2" />
<line x1="664.331" y1="-112.269" x2="685.114" y2="-126.393" stroke="red" stroke-width="2" />
<line x1="685.114" y1="-126.393" x2="704.97" y2="-141.795" stroke="red" stroke-width="2" />
<line x1="704.97" y1="-141.795" x2="723.819" y2="-158.413" stroke="red" stroke-width="2" />
<line x1="723.819" y1="-158.413" x2="741.587" y2="-176.181" stroke="red" stroke-width="2" />
<line x1="741.587" y1="-176.181" x2="758.205" y2="-195.03" stroke="red" stroke-width="2" />
<line x1="758.205" y1="-195.03" x2="773.607" y2="-214.886" stroke="red" stroke-width="2" />
<line x1="773.607" y1="-214.886" x2="787.731" y2="-235.669" stroke="red" stroke-width="2" />
<line x1="787.731" y1="-235.669" x2="800.523" y2="-257.299" stroke="red" stroke-width="2" />
<line x1="800.523" y1="-257.299" x2="811.931" y2="-279.688" stroke="red" stroke-width="2" />
<line x1="811.931" y1="-279.688" x2="821.911" y2="-302.75" stroke="red" stroke-width="2" />
<line x1="821.911" y1="-302.75" x2="830.423" y2="-326.393" stroke="red" stroke-width="2" />
<line x1="830.423" y1="-326.393" x2="837.433" y2="-350.524" stroke="red" stroke-width="2" />
<line x1="837.433" y1="-350.524" x2="842.915" y2="-375.047" stroke="red" stroke-width="2" />
<line x1="842.915" y1="-375.047" x2="846.846" y2="-399.867" stroke="red" stroke-width="2" />
<line x1="846.846" y1="-399.867" x2="849.211" y2="-424.884" stroke="red" stroke-width="2" />
<line x1="849.211" y1="-424.884" x2="850" y2="-450" stroke="red" stroke-width="2" />
<line x1="850" y1="-450" x2="850" y2="-0" stroke="red" stroke-width="2" />
<line x1="50" y1="-0" x2="850" y2="-0" stroke="green" stroke-width="2" />
<circle cx="50" cy="-0" r="10" stroke="Black" stroke-width="2" fill="white" />
<text x="50" y="3" text-anchor="middle" font-size="12" font-weight="bold">A</text>
<circle cx="50" cy="-450" r="10" stroke="#0026CA" stroke-width="2" fill="#84FFFF" />
<text x="50" y="-447" text-anchor="middle" font-size="12" font-weight="bold">49</text>
<circle cx="50.7893" cy="-424.884" r="10" stroke="Black" stroke-width="2" fill="white" />
<text x="50.7893" y="-421.884" text-anchor="middle" font-size="12" font-weight="bold">48</text>
<circle cx="53.1541" cy="-399.867" r="10" stroke="Black" stroke-width="2" fill="white" />
<text x="53.1541" y="-396.867" text-anchor="middle" font-size="12" font-weight="bold">47</text>
<circle cx="57.0851" cy="-375.047" r="10" stroke="Black" stroke-width="2" fill="white" />
<text x="57.0851" y="-372.047" text-anchor="middle" font-size="12" font-weight="bold">46</text>
<circle cx="62.5667" cy="-350.524" r="10" stroke="Black" stroke-width="2" fill="white" />
<text x="62.5667" y="-347.524" text-anchor="middle" font-size="12" font-weight="bold">45</text>
<circle cx="69.5774" cy="-326.393" r="10" stroke="Black" stroke-width="2" fill="white" />
<text x="69.5774" y="-323.393" text-anchor="middle" font-size="12" font-weight="bold">44</text>
<circle cx="78.0894" cy="-302.75" r="10" stroke="Black" stroke-width="2" fill="white" />
<text x="78.0894" y="-299.75" text-anchor="middle" font-size="12" font-weight="bold">43</text>
<circle cx="88.0692" cy="-279.688" r="10" stroke="Black" stroke-width="2" fill="white" />
<text x="88.0692" y="-276.688" text-anchor="middle" font-size="12" font-weight="bold">42</text>
<circle cx="99.4773" cy="-257.299" r="10" stroke="Black" stroke-width="2" fill="white" />
<text x="99.4773" y="-254.299" text-anchor="middle" font-size="12" font-weight="bold">41</text>
<circle cx="112.269" cy="-235.669" r="10" stroke="Black" stroke-width="2" fill="white" />
<text x="112.269" y="-232.669" text-anchor="middle" font-size="12" font-weight="bold">40</text>
<circle cx="126.393" cy="-214.886" r="10" stroke="Black" stroke-width="2" fill="white" />
<text x="126.393" y="-211.886" text-anchor="middle" font-size="12" font-weight="bold">39</text>
<circle cx="141.795" cy="-195.03" r="10" stroke="Black" stroke-width="2" fill="white" />
<text x="141.795" y="-192.03" text-anchor="middle" font-size="12" font-weight="bold">38</text>
<circle cx="158.413" cy="-176.181" r="10" stroke="Black" stroke-width="2" fill="white" />
<text x="158.413" y="-173.181" text-anchor="middle" font-size="12" font-weight="bold">37</text>
<circle cx="176.181" cy="-158.413" r="10" stroke="Black" stroke-width="2" fill="white" />
<text x="176.181" y="-155.413" text-anchor="middle" font-size="12" font-weight="bold">36</text>
<circle cx="195.03" cy="-141.795" r="10" stroke="Black" stroke-width="2" fill="white" />
<text x="195.03" y="-138.795" text-anchor="middle" font-size="12" font-weight="bold">35</text>
<circle cx="214.886" cy="-126.393" r="10" stroke="Black" stroke-width="2" fill="white" />
<text x="214.886" y="-123.393" text-anchor="middle" font-size="12" font-weight="bold">34</text>
<circle cx="235.669" cy="-112.269" r="10" stroke="Black" stroke-width="2" fill="white" />
<text x="235.669" y="-109.269" text-anchor="middle" font-size="12" font-weight="bold">33</text>
<circle cx="257.299" cy="-99.4773" r="10" stroke="Black" stroke-width="2" fill="white" />
<text x="257.299" y="-96.4773" text-anchor="middle" font-size="12" font-weight="bold">32</text>
<circle cx="279.688" cy="-88.0692" r="10" stroke="Black" stroke-width="2" fill="white" />
<text x="279.688" y="-85.0692" text-anchor="middle" font-size="12" font-weight="bold">31</text>
<circle cx="302.75" cy="-78.0894" r="10" stroke="Black" stroke-width="2" fill="white" />
<text x="302.75" y="-75.0894" text-anchor="middle" font-size="12" font-weight="bold">30</text>
<circle cx="326.393" cy="-69.5774" r="10" stroke="Black" stroke-width="2" fill="white" />
<text x="326.393" y="-66.5774" text-anchor="middle" font-size="12" font-weight="bold">29</text>
<circle cx="350.524" cy="-62.5667" r="10" stroke="Black" stroke-width="2" fill="white" />
<text x="350.524" y="-59.5667" text-anchor="middle" font-size="12" font-weight="bold">28</text>
<circle cx="375.047" cy="-57.0851" r="10" stroke="Black" stroke-width="2" fill="white" />
<text x="375.047" y="-54.0851" text-anchor="middle" font-size="12" font-weight="bold">27</text>
<circle cx="399.867" cy="-53.1541" r="10" stroke="Black" stroke-width="2" fill="white" />
<text x="399.867" y="-50.1541" text-anchor="middle" font-size="12" font-weight="bold">26</text>
<circle cx="424.884" cy="-50.7893" r="10" stroke="Black" stroke-width="2" fill="white" />
<text x="424.884" y="-47.7893" text-anchor="middle" font-size="12" font-weight="bold">25</text>
<circle cx="450" cy="-50" r="10" stroke="Black" stroke-width="2" fill="white" />
<text x="450" y="-47" text-anchor="middle" font-size="12" font-weight="bold">24</text>
<circle cx="475.116" cy="-50.7893" r="10" stroke="Black" stroke-width="2" fill="white" />
<text x="475.116" y="-47.7893" text-anchor="middle" font-size="12" font-weight="bold">23</text>
<circle cx="500.133" cy="-53.1541" r="10" stroke="Black" stroke-width="2" fill="white" />
<text x="500.133" y="-50.1541" text-anchor="middle" font-size="12" font-weight="bold">22</text>
<circle cx="524.953" cy="-57.0851" r="10" stroke="Black" stroke-width="2" fill="white" />
<text x="524.953" y="-54.0851" text-anchor="middle" font-size="12" font-weight="bold">21</text>
<circle cx="549.476" cy="-62.5667" r="10" stroke="Black" stroke-width="2" fill="white" />
<text x="549.476" y="-59.5667" text-anchor="middle" font-size="12" font-weight="bold">20</text>
<circle cx="573.607" cy="-69.5774" r="10" stroke="Black" stroke-width="2" fill="white" />
<text x="573.607" y="-66.5774" text-anchor="middle" font-size="12" font-weight="bold">19</text>
<circle cx="597.25" cy="-78.0894" r="10" stroke="Black" stroke-width="2" fill="white" />
<text x="597.25" y="-75.0894" text-anchor="middle" font-size="12" font-weight="bold">18</text>
<circle cx="620.312" cy="-88.0692" r="10" stroke="Black" stroke-width="2" fill="white" />
<text x="620.312" y="-85.0692" text-anchor="middle" font-size="12" font-weight="bold">17</text>
<circle cx="642.701" cy="-99.4773" r="10" stroke="Black" stroke-width="2" fill="white" />
<text x="642.701" y="-96.4773" text-anchor="middle" font-size="12" font-weight="bold">16</text>
<circle cx="664.331" cy="-112.269" r="10" stroke="Black" stroke-width="2" fill="white" />
<text x="664.331" y="-109.269" text-anchor="middle" font-size="12" font-weight="bold">15</text>
<circle cx="685.114" cy="-126.393" r="10" stroke="Black" stroke-width="2" fill="white" />
<text x="685.114" y="-123.393" text-anchor="middle" font-size="12" font-weight="bold">14</text>
<circle cx="704.97" cy="-141.795" r="10" stroke="Black" stroke-width="2" fill="white" />
<text x="704.97" y="-138.795" text-anchor="middle" font-size="12" font-weight="bold">13</text>
<circle cx="723.819" cy="-158.413" r="10" stroke="Black" stroke-width="2" fill="white" />
<text x="723.819" y="-155.413" text-anchor="middle" font-size="12" font-weight="bold">12</text>
<circle cx="741.587" cy="-176.181" r="10" stroke="Black" stroke-width="2" fill="white" />
<text x="741.587" y="-173.181" text-anchor="middle" font-size="12" font-weight="bold">11</text>
<circle cx="758.205" cy="-195.03" r="10" stroke="Black" stroke-width="2" fill="white" />
<text x="758.205" y="-192.03" text-anchor="middle" font-size="12" font-weight="bold">10</text>
<circle cx="773.607" cy="-214.886" r="10" stroke="Black" stroke-width="2" fill="white" />
<text x="773.607" y="-211.886" text-anchor="middle" font-size="12" font-weight="bold">9</text>
<circle cx="787.731" cy="-235.669" r="10" stroke="Black" stroke-width="2" fill="white" />
<text x="787.731" y="-232.669" text-anchor="middle" font-size="12" font-weight="bold">8</text>
<circle cx="800.523" cy="-257.299" r="10" stroke="Black" stroke-width="2" fill="white" />
<text x="800.523" y="-254.299" text-anchor="middle" font-size="12" font-weight="bold">7</text>
<circle cx="811.931" cy="-279.688" r="10" stroke="Black" stroke-width="2" fill="white" />
<text x="811.931" y="-276.688" text-anchor="middle" font-size="12" font-weight="bold">6</text>
<circle cx="821.911" cy="-302.75" r="10" stroke="Black" stroke-width="2" fill="white" />
<text x="821.911" y="-299.75" text-anchor="middle" font-size="12" font-weight="bold">5</text>
<circle cx="830.423" cy="-326.393" r="10" stroke="Black" stroke-width="2" fill="white" />
<text x="830.423" y="-323.393" text-anchor="middle" font-size="12" font-weight="bold">4</text>
<circle cx="837.433" cy="-350.524" r="10" stroke="Black" stroke-width="2" fill="white" />
<text x="837.433" y="-347.524" text-anchor="middle" font-size="12" font-weight="bold">3</text>
<circle cx="842.915" cy="-375.047" r="10" stroke="Black" stroke-width="2" fill="white" />
<text x="842.915" y="-372.047" text-anchor="middle" font-size="12" font-weight="bold">2</text>
<circle cx="846.846" cy="-399.867" r="10" stroke="Black" stroke-width="2" fill="white" />
<text x="846.846" y="-396.867" text-anchor="middle" font-size="12" font-weight="bold">1</text>
<circle cx="849.211" cy="-424.884" r="10" stroke="Black" stroke-width="2" fill="white" />
<text x="849.211" y="-421.884" text-anchor="middle" font-size="12" font-weight="bold">0</text>
<circle cx="850" cy="-450" r="10" stroke="#0026CA" stroke-width="2" fill="#84FFFF" />
<text x="850" y="-447" text-anchor="middle" font-size="12" font-weight="bold">99</text>
<circle cx="850" cy="-0" r="10" stroke="Black" stroke-width="2" fill="white" />
<text x="850" y="3" text-anchor="middle" font-size="12" font-weight="bold">B</text>
<circle cx="50" cy="-450" r="10" stroke="#0026CA" stroke-width="2" fill="#84FFFF" />
<text x="50" y="-447" text-anchor="middle" font-size="12" font-weight="bold">49</text>
<circle cx="850" cy="-450" r="10" stroke="#0026CA" stroke-width="2" fill="#84FFFF" />
<text x="850" y="-447" text-anchor="middle" font-size="12" font-weight="bold">99</text>
</svg>
